<?xml version="1.0" encoding="UTF-8" standalone="no"?>
<svg
   xmlns:dc="http://purl.org/dc/elements/1.1/"
   xmlns:cc="http://creativecommons.org/ns#"
   xmlns:rdf="http://www.w3.org/1999/02/22-rdf-syntax-ns#"
   xmlns:svg="http://www.w3.org/2000/svg"
   xmlns="http://www.w3.org/2000/svg"
   xmlns:sodipodi="http://sodipodi.sourceforge.net/DTD/sodipodi-0.dtd"
   xmlns:inkscape="http://www.inkscape.org/namespaces/inkscape"
   viewBox="0 0 3916 1524"
   version="1.1"
   id="svg56"
   sodipodi:docname="Webpack.svg"
   inkscape:version="1.0.2-2 (e86c870879, 2021-01-15)">
  <metadata
     id="metadata62">
    <rdf:RDF>
      <cc:Work
         rdf:about="">
        <dc:format>image/svg+xml</dc:format>
        <dc:type
           rdf:resource="http://purl.org/dc/dcmitype/StillImage" />
      </cc:Work>
    </rdf:RDF>
  </metadata>
  <defs
     id="defs60" />
  <sodipodi:namedview
     pagecolor="#ffffff"
     bordercolor="#666666"
     borderopacity="1"
     objecttolerance="10"
     gridtolerance="10"
     guidetolerance="10"
     inkscape:pageopacity="0"
     inkscape:pageshadow="2"
     inkscape:window-width="1366"
     inkscape:window-height="745"
     id="namedview58"
     showgrid="false"
     inkscape:zoom="0.18815252"
     inkscape:cx="2328.4012"
     inkscape:cy="431.22766"
     inkscape:window-x="-8"
     inkscape:window-y="-8"
     inkscape:window-maximized="1"
     inkscape:current-layer="svg56" />
  <title
     id="title46">logo-on-white-bg</title>
  <path
     fill="#ffffff"
     d="m 510.01753,215.01859 493.93117,279.3838 V 1053.2976 L 510.01753,1332.6814 16.086372,1053.2976 V 494.40239 Z"
     id="path48"
     style="stroke-width:1.27631" />
  <path
     fill="#8ed6fb"
     d="M 915.75581,1034.0254 526.35427,1254.3161 V 1082.7803 L 768.9804,949.27852 Z m 26.67483,-24.1223 V 549.28363 l -142.43596,82.32186 v 296.10343 z m -839.68296,24.1223 389.40154,220.2907 V 1082.7803 L 249.39546,949.27852 Z M 76.072843,1009.9031 V 549.28363 L 218.5088,631.60549 V 927.70892 Z M 92.792477,519.41802 492.14922,293.51152 v 165.7924 l -255.89974,140.77676 -2.04209,1.14868 z m 832.918533,0 -399.35674,-225.9065 v 165.7924 l 255.89973,140.64913 2.04209,1.14868 z"
     id="path50"
     style="stroke-width:1.27631" />
  <path
     fill="#1c78c0"
     d="M 492.14922,1043.7253 252.71386,912.01033 v -260.7497 l 239.43536,138.22414 z m 34.20505,0 239.43536,-131.58734 V 651.26063 L 526.35427,789.48477 Z M 509.25174,779.52957 Z M 268.92297,621.13976 509.25174,489.04189 749.58052,621.13976 509.25174,759.87443 Z"
     id="path52"
     style="stroke-width:1.27631" />
  <path
     fill="#1a1c1c"
     d="m 1502.0917,950.55483 h 105.2954 l 107.3374,-357.62147 h -102.6151 l -63.5601,253.73001 -67.772,-253.73001 h -88.831 l -68.4101,253.73001 -62.922,-253.73001 H 1157.999 l 106.6994,357.62147 h 105.2954 l 66.368,-229.09727 z m 218.121,-177.78969 c 0,107.33749 73.1324,186.72384 188.1278,186.72384 88.9586,0 136.8202,-53.34967 150.4767,-78.62056 l -62.2839,-47.2234 c -10.2104,15.06044 -38.2892,43.77737 -86.9165,43.77737 -52.7116,0 -91.0008,-34.20506 -93.0429,-82.0666 h 251.8156 c 0.6381,-6.89206 0.6381,-13.6565 0.6381,-20.54856 0,-116.9098 -62.922,-190.80803 -173.7055,-190.80803 -101.977,0 -175.1094,80.66266 -175.1094,188.76594 z m 99.1691,-39.05502 c 4.0842,-40.96949 32.8011,-72.49429 77.3443,-72.49429 43.1392,0 74.5363,28.71693 76.5784,72.49429 z m 285.2548,216.84471 h 88.9587 v -36.8853 c 9.5723,11.6144 45.1813,45.81945 106.0612,45.81945 102.6151,0 175.1094,-77.21662 175.1094,-187.362 0,-110.78352 -67.0062,-188.00015 -169.6213,-188.00015 -61.5181,0 -97.1271,34.20505 -106.0612,46.45761 V 456.11315 h -94.3192 v 494.44168 z m 91.6389,-177.78969 c 0,-67.00617 39.6932,-105.2954 91.6389,-105.2954 54.7536,0 91.6389,43.1392 91.6389,105.2954 0,63.56013 -38.2892,103.25331 -91.6389,103.25331 -57.4338,0 -91.6389,-46.58524 -91.6389,-103.25331 z m 315.2481,305.67576 h 94.3191 v -164.899 c 8.9342,11.6144 44.4155,45.81945 106.0612,45.81945 102.6152,0 169.6213,-77.21663 169.6213,-188.00015 0,-109.37959 -72.4943,-187.362 -175.1094,-187.362 -60.8799,0 -96.4889,34.20505 -106.0612,46.45761 v -37.65108 h -88.9587 v 485.63517 z m 91.6389,-307.71785 c 0,-56.79571 34.205,-103.25331 91.6389,-103.25331 53.3496,0 91.6389,39.69317 91.6389,103.25331 0,62.28382 -36.8853,105.2954 -91.6389,105.2954 -51.9458,0 -91.6389,-38.28924 -91.6389,-105.2954 z m 295.4652,69.04825 c 0,75.17454 61.5181,119.71768 134.0124,119.71768 41.0971,0 68.4101,-12.25255 86.9165,-32.16296 l 6.1263,23.22881 h 83.4706 V 724.13781 c 0,-80.02451 -34.2051,-140.13861 -149.0728,-140.13861 -54.7536,0 -108.7414,20.54856 -140.9044,42.37342 l 35.609,64.32592 c 26.6748,-13.65649 59.4759,-25.2709 95.0849,-25.2709 41.7353,0 64.9641,21.18672 64.9641,52.71152 v 23.2288 c -13.0183,-8.93415 -41.0971,-19.78277 -77.3443,-19.78277 -83.4705,-0.12763 -138.8623,47.73392 -138.8623,118.18611 z m 94.3192,-2.80787 c 0,-29.35509 25.2709,-49.90364 61.518,-49.90364 36.2472,0 62.2839,18.50646 62.2839,49.90364 0,30.12086 -26.0367,49.26548 -61.5181,49.26548 -35.4813,0 -62.2838,-19.78277 -62.2838,-49.26548 z m 445.3038,39.05502 c -59.4759,0 -101.8493,-43.13921 -101.8493,-103.89147 0,-57.43385 37.651,-104.65724 98.5309,-104.65724 40.3314,0 67.772,19.78277 83.4706,34.20505 l 26.6748,-79.38635 c -23.2288,-17.74068 -60.2417,-38.28924 -112.8256,-38.28924 -108.7415,0 -190.1699,80.02451 -190.1699,188.76594 0,108.74143 79.3864,186.72384 190.808,186.72384 51.9458,0 91.0008,-21.82486 111.4217,-38.28923 l -25.2709,-77.21663 c -15.8262,12.89071 -44.5431,32.03533 -80.7903,32.03533 z m 141.5426,74.53638 h 94.3191 V 765.87308 l 119.7177,184.68175 h 110.7835 l -135.4162,-195.658 125.8439,-162.0911 h -106.0612 l -114.8677,150.4767 V 456.11315 h -94.3191 z"
     id="path54"
     style="stroke-width:1.27631" />
</svg>
